inDegrees=no
num_controls=7
num_derivatives=13
num_iterations=117
num_multipliers=7
num_parameters=0
num_slacks=7
num_states=26
objective=5.384999
objective_accelerations=0.371538
objective_balance=0.033108
objective_effort=0.396105
objective_height=4.511186
objective_ligament=0.073061
solver_duration=1284.692352
status=Solve_Succeeded
success=true
DataType=double
version=3
OpenSimVersion=4.4-2022-07-23-0e9fedc
endheader
time	/jointset/ground_pelvis/pelvis_tilt/value	/jointset/ground_pelvis/pelvis_tx/value	/jointset/ground_pelvis/pelvis_ty/value	/jointset/hip_l/hip_flexion_l/value	/jointset/hip_l/hip_adduction_l/value	/jointset/hip_l/hip_rotation_l/value	/jointset/back/lumbar_extension/value	/jointset/patellofemoral_l/patellar_flexion_l/value	/jointset/knee_l/knee_flexion_l/value	/jointset/knee_l/knee_adduction_l/value	/jointset/knee_l/knee_rotation_l/value	/jointset/ankle_l/ankle_angle_l/value	/jointset/subtalar_l/subtalar_angle_l/value	/jointset/ground_pelvis/pelvis_tilt/speed	/jointset/ground_pelvis/pelvis_tx/speed	/jointset/ground_pelvis/pelvis_ty/speed	/jointset/hip_l/hip_flexion_l/speed	/jointset/hip_l/hip_adduction_l/speed	/jointset/hip_l/hip_rotation_l/speed	/jointset/back/lumbar_extension/speed	/jointset/patellofemoral_l/patellar_flexion_l/speed	/jointset/knee_l/knee_flexion_l/speed	/jointset/knee_l/knee_adduction_l/speed	/jointset/knee_l/knee_rotation_l/speed	/jointset/ankle_l/ankle_angle_l/speed	/jointset/subtalar_l/subtalar_angle_l/speed	/forceset/tau_hip_flexion_l	/forceset/tau_hip_adduction_l	/forceset/tau_hip_rotation_l	/forceset/tau_knee_flexion_l	/forceset/tau_ankle_angle_l	/forceset/tau_subtalar_angle_l	/forceset/tau_lumbar_extension	lambda_cid13_p0	lambda_cid13_p1	lambda_cid13_p2	lambda_cid13_p3	lambda_cid13_p4	lambda_cid13_p5	lambda_cid14_p0	/jointset/ground_pelvis/pelvis_tilt/accel	/jointset/ground_pelvis/pelvis_tx/accel	/jointset/ground_pelvis/pelvis_ty/accel	/jointset/hip_l/hip_flexion_l/accel	/jointset/hip_l/hip_adduction_l/accel	/jointset/hip_l/hip_rotation_l/accel	/jointset/back/lumbar_extension/accel	/jointset/patellofemoral_l/patellar_flexion_l/accel	/jointset/knee_l/knee_flexion_l/accel	/jointset/knee_l/knee_adduction_l/accel	/jointset/knee_l/knee_rotation_l/accel	/jointset/ankle_l/ankle_angle_l/accel	/jointset/subtalar_l/subtalar_angle_l/accel	gamma_cid13_p0	gamma_cid13_p1	gamma_cid13_p2	gamma_cid13_p3	gamma_cid13_p4	gamma_cid13_p5	gamma_cid14_p0
1.5	0.05829967168295386	0.01060456476606158	0.8813857622742212	0.5051670042077516	-0.3180526912470619	-0.1725495658595205	-0.773803119032515	0.6517456272546786	0.6517456272546991	-0.1163468874462183	-0.1745022840817444	0.138140637530788	0.0241592042980981	0.1902438897216973	0.2030911938770178	0.2941947328373014	-1.534280577852975	0.09871942419361777	-0.5503959386830189	0.8411900230887347	-1.667774602326841	-1.667774602326879	-0.1184812930530241	-6.80162646422614e-05	-0.4219514041781797	-0.03623850263380564	-0.155334927756616	0.02794852414710898	-0.004423098589601574	-0.2104253897178375	0.05481587608732745	0.03394575745232768	0.2521001084034998	-25.26872265557716	-13.02025179836552	4.707787448298283	-3.9810079056499	-675.7392133781474	-74.12735125348927	-19.55037961921413	-0.1601208714478953	0.4496566406964413	-0.4723126814535332	-0.3730919943811832	0.3471465341558118	-0.2707446071748992	1.560763701232561	-0.6905548029058486	-0.690554802905842	-0.2420448623352826	0.02180459082890955	-0.1329952013530808	0.3400471938911796	3.309636406797675e-08	9.026262149765276e-07	-1.002117462874381e-07	1.287811651733625e-07	5.799011568995028e-08	3.326795797546943e-07	9.846438911922371e-08
1.51	0.0601938424608378	0.01265779022379497	0.8843035442896062	0.4898072488273419	-0.3170485110832285	-0.1780676204491315	-0.7653140704843336	0.6350354311370918	0.6350354311371796	-0.1175438726663231	-0.1745031707262948	0.1339150341734709	0.02381354725929109	0.1885674032881709	0.2075348402636442	0.2893097083838704	-1.53748897825224	0.1021131057509427	-0.5531562951333192	0.8565244190795152	-1.674051383099772	-1.674051383099875	-0.1209106390495412	-0.0001053223527794401	-0.4230980066497441	-0.03287739067106864	-0.1496103321718298	0.02686699859572638	-0.004430149192202682	-0.2073953676606019	0.05593999931013389	0.03331127100578715	0.2464225909567156	-24.77035924212045	-12.8696103228753	4.72678333937484	-4.047725001032322	-672.8641819210698	-74.15607747736483	-20.0504097147079	-0.1748465096958381	0.4388881147505149	-0.5043822486695788	-0.2674930282460066	0.3348441407035757	-0.2697948086353669	1.505487429610834	-0.5642729589451704	-0.5642729589547143	-0.2424599727621044	-0.01591303138880424	-0.09477853864400741	0.3363260819112084	2.340399943137591e-08	9.330383971719904e-07	-6.420550304678888e-08	1.364879987629194e-07	5.059560887064138e-08	3.272336050766171e-07	9.604037232256778e-08
1.52	0.06207056157836707	0.01475488604082047	0.8871709190761806	0.4744208536498812	-0.316010521068982	-0.1836115013321945	-0.7566745359999123	0.6182688605629079	0.6182688605629902	-0.1187649674472994	-0.1745043133961652	0.1296801076377207	0.02350193791700153	0.1867535576388198	0.2118652657354415	0.2841132870751397	-1.539608537273336	0.1054813942755964	-0.5555611973707307	0.8712872103344961	-1.679049493651047	-1.679049493651215	-0.1233032052241382	-0.0001192213510603114	-0.4238160398647647	-0.02942896333048546	-0.1438857365870104	0.0257854730443177	-0.004437199794878027	-0.2043653456033623	0.05706412253291691	0.0326767845592173	0.2407450735099678	-24.27773467158771	-12.71786073557751	4.745484862236853	-4.121794596083042	-670.0910159532963	-74.20854943561451	-20.52791561631262	-0.1875927146110628	0.427012457729318	-0.53459205251357	-0.1553237187474675	0.3420679276219707	-0.1996537645965168	1.446442754073781	-0.4348207585743056	-0.4348207585743087	-0.2346888979509235	0.02648600880086769	-0.04728135004569642	0.3575102694602478	1.361912126702844e-08	9.51618217377071e-07	-2.896074689292466e-08	1.420982320121395e-07	4.36778978171588e-08	3.171890547139408e-07	9.256031018649794e-08
1.53	0.06392850621912521	0.01689469756332006	0.8899848130549328	0.459018747542083	-0.3149389517101392	-0.1891777457795687	-0.7478903164598355	0.6014588902566543	0.6014588902568337	-0.1200096197223326	-0.1745055475328495	0.1254402650828358	0.0232253261874417	0.184819366352441	0.2160756470351947	0.2786178694494361	-1.540629770401341	0.1088255568840857	-0.5576277025561113	0.8854505671583844	-1.682713257083827	-1.682713257083879	-0.1256158885828692	-0.0001273944873826279	-0.4240704933636397	-0.02587771317436964	-0.1381282139723893	0.02466263207412235	-0.004482405097418703	-0.2013520401287384	0.05823908356271574	0.03197882338432508	0.2350425829484748	-23.77402848611279	-12.5372502168875	4.755890692444299	-4.200139467232225	-667.3668974475578	-74.21651411555503	-20.97994043737616	-0.1987405293114688	0.4148716612496354	-0.5641557347992776	-0.0480963147114468	0.3294284320012687	-0.2010776169717388	1.385362570107582	-0.2974746576100024	-0.2974746575923106	-0.2276945575801796	-0.01443973581658035	-0.002206836197604985	0.3561286738499479	3.735947479450211e-09	9.576261529673709e-07	5.474929231230454e-09	1.454808273997519e-07	3.72667822648667e-08	3.022585176863777e-07	8.795819987730084e-08
1.54	0.06576662730836136	0.01907597703785261	0.8927423250339891	0.443611914462081	-0.3138341731242631	-0.1947628410231431	-0.7389676472667984	0.5846192182117368	0.5846192182118763	-0.1212770261315696	-0.1745068575529103	0.1212003420956795	0.02298466621647668	0.1827888473194579	0.2201588561420337	0.2728368871358656	-1.540553931724655	0.112123239674154	-0.5593313566000051	0.898977140924508	-1.684989841395815	-1.68498984139575	-0.1278540320514333	-0.000134398062424048	-0.42383212631811	-0.02223861161176003	-0.1323706913578441	0.02353979110379365	-0.004527610400268993	-0.1983387346541403	0.05941404459243906	0.03128086220921934	0.2293400923869642	-23.27632929871798	-12.35487103090076	4.765195973387383	-4.283368887608912	-664.7483783611292	-74.24430040376708	-21.40356186084006	-0.2068582639299112	0.4015780191451196	-0.5917049900870136	0.06409064219096387	0.3327719639382836	-0.1270835362982561	1.319086142522127	-0.1573849344158037	-0.1573849344157956	-0.2197809199171747	0.02671992105802964	0.05128275883378416	0.3750805507588894	1.292540229547396e-08	9.669204701747638e-07	-4.931198552120223e-08	1.411243940969231e-07	5.155966929452696e-08	3.268942185691407e-07	9.545833103040192e-08
1.55	0.0675838942618657	0.02129735022260082	0.8954406522270277	0.4282113729559864	-0.3126968260062261	-0.2003628796280544	-0.7299132207159276	0.567763568580736	0.5677635685807944	-0.1225669264857462	-0.174508110880236	0.1169650488084156	0.02278055652477603	0.1806391051481291	0.2240832859802029	0.2667854653878796	-1.539350889467159	0.1153382223535581	-0.5606212393223989	0.9117710066157765	-1.685909715050404	-1.685909715050546	-0.1301065720007436	-0.0001187967669226877	-0.4231571414927342	-0.01857301115053974	-0.1262350567999252	0.02216315091867828	-0.0046293599684225	-0.1956400511972457	0.06078681824053607	0.0305689589994467	0.2232886355880856	-22.72115028991427	-12.17216541062779	4.7694964002883	-4.28322516115904	-662.1350979429892	-74.33285457764867	-21.79589513628877	-0.2228490144047212	0.3830253335913998	-0.6183014998910407	0.1789309212164457	0.3145839263444122	-0.121557103851009	1.238962389355005	-0.02475888184567921	-0.02475888187634556	-0.2249265690491316	-0.01146177378483235	0.08604034494817168	0.363725826651829	4.408984224173357e-08	9.800012705496768e-07	-2.068988419357848e-07	1.278512538246736e-07	8.970716799469625e-08	3.971171066094508e-07	1.169023490857153e-07
1.56	0.06937890042957735	0.02355699767922372	0.8980771770560416	0.4128289658532532	-0.3115275845601171	-0.2059741403529254	-0.7207349703867473	0.5509056261530819	0.5509056261529248	-0.1238787394467857	-0.1745092965959317	0.1127385921695179	0.02261338804425821	0.1783366901497674	0.2278137105169727	0.2604764143308497	-1.536927051062075	0.1185021052890881	-0.5615757805904366	0.9237418965838489	-1.685448400739588	-1.685448400739936	-0.1322365534144971	-0.0001208757746806132	-0.4220647966450393	-0.01485036937540463	-0.120099422241934	0.02078651073353514	-0.004731109537147088	-0.1929413677402749	0.06215959188863141	0.02985705578967933	0.2172371787892583	-22.17186273888217	-11.98850169522502	4.773728483430371	-4.293303989038119	-659.6272285763498	-74.45288291315767	-22.1541719372854	-0.2373928293342223	0.3627769588638498	-0.6432308518958403	0.3082498717088783	0.3225520151640127	-0.06001524542583172	1.154490997884382	0.1188526586653111	0.1188526586653112	-0.1952692128053912	0.02318386040746041	0.1347547632961171	0.3864888135417922	6.947426481418518e-08	9.942759567173041e-07	-3.342332014666599e-07	1.166986999048205e-07	1.252296447777117e-07	4.571015426282337e-07	1.343008560250091e-07
1.57	0.07115018893357752	0.02585291693660403	0.9006493723552882	0.3974768818737384	-0.3103271057114456	-0.2115929975161853	-0.7114413852011277	0.534059280910031	0.5340592809100468	-0.1252115678694039	-0.1745104780827893	0.108525120032807	0.02248356077133215	0.175898321978008	0.2313307314466434	0.2539234608654612	-1.533271723636848	0.1215797090348688	-0.5621285176641089	0.9348155293906441	-1.683568168765601	-1.683568168765712	-0.1343094539682982	-0.0001157440953738607	-0.4205551973588302	-0.01110927602121658	-0.113819806686133	0.0193297024399775	-0.004863392380986827	-0.1903657993455709	0.06363131342420669	0.02901321117019131	0.2110537011800234	-21.60093032272887	-11.74660392218233	4.76328246971741	-4.254922429174509	-657.159339154297	-74.49478111371774	-22.47572410251099	-0.2504604845782606	0.3402738894177897	-0.667170085172949	0.4268792806083438	0.2982070519151276	-0.04269336753637459	1.05985775180606	0.2604495828092449	0.2604495828449593	-0.2102124055722917	-0.01096789033481797	0.1702543023973113	0.3686856419338558	8.763366566937684e-08	1.010043000125824e-06	-4.237519398929012e-07	1.081968789254627e-07	1.57470844164285e-07	5.042879136201076e-07	1.466424740692783e-07
